<svg width="249.2" height="100.7" viewBox="0 0 249.17332 100.72" xmlns="http://www.w3.org/2000/svg"><g fill="#052340"><path d="M163.692 48.9c0 2.912-.787 5.141-2.355 6.698-1.57 1.554-3.24 2.138-5.46 2.138l-10.125.061h-4.645a2.245 2.245 0 0 0-2.247 2.24 2.248 2.248 0 0 0 2.247 2.242h11.502c6.051 0 10.975 4.925 10.975 10.98 0 6.054-4.924 10.977-10.975 10.977H130.12c0-2.91.786-5.14 2.354-6.695 1.571-1.557 3.234-2.034 5.452-2.034l6.885-.005h7.791a2.246 2.246 0 0 0 2.244-2.245 2.247 2.247 0 0 0-2.244-2.245h-11.501c-6.056 0-10.981-4.925-10.981-10.977 0-6.054 4.948-11.136 11.004-11.136h22.567M62.918 66.655c0-2.463-.846-4.58-2.537-6.35-1.692-1.77-3.771-2.656-6.239-2.656s-4.546.886-6.238 2.656c-1.69 1.77-2.534 3.887-2.534 6.35 0 2.433.85 4.527 2.557 6.285 1.703 1.755 3.776 2.636 6.217 2.636h8.775zm-8.753 17.596c-4.896 0-9.095-1.714-12.594-5.146-3.498-3.428-5.25-7.579-5.25-12.444 0-4.871 1.75-9.032 5.25-12.49 3.5-3.459 7.698-5.187 12.594-5.187 4.894 0 9.1 1.73 12.613 5.188 3.512 3.457 5.27 7.618 5.27 12.489v17.595H54.16m39.15-26.612h-8.776v8.922c0 2.463.846 4.577 2.538 6.349 1.69 1.769 3.77 2.654 6.238 2.654 2.469 0 4.547-.885 6.238-2.654 1.69-1.772 2.538-3.886 2.538-6.35 0-2.433-.852-4.529-2.559-6.287-1.702-1.757-3.775-2.635-6.216-2.635zm.02 26.593c-4.895 0-9.093-1.727-12.59-5.186-3.502-3.457-5.252-7.621-5.252-12.486V40.718c2.879 0 5.105.787 6.68 2.364 1.579 1.576 2.365 3.458 2.365 5.644v.248h8.797c4.897 0 9.1 1.707 12.614 5.126 3.512 3.416 5.27 7.572 5.27 12.47 0 4.865-1.758 9.03-5.27 12.486-3.514 3.46-7.717 5.186-12.614 5.186m24.44-2.364c-1.578-1.577-2.366-3.458-2.366-5.641v-27.26c2.877 0 5.106.79 6.679 2.366 1.58 1.576 2.366 3.46 2.366 5.641v27.26c-2.878 0-5.102-.787-6.678-2.365m75.114-15.237c0-2.462-.846-4.58-2.538-6.35-1.689-1.77-3.77-2.655-6.236-2.655-2.468 0-4.547.885-6.24 2.656-1.691 1.77-2.536 3.887-2.536 6.349 0 2.433.853 4.527 2.56 6.285 1.703 1.754 3.774 2.634 6.216 2.634h8.774zm-8.754 17.595c-4.896 0-9.092-1.714-12.593-5.145-3.5-3.43-5.248-7.58-5.248-12.445 0-4.87 1.748-9.03 5.248-12.489 3.5-3.457 7.697-5.19 12.593-5.19s9.1 1.731 12.612 5.19c3.512 3.458 5.272 7.618 5.272 12.49v17.595h-17.889M9.044 71.294V84.24H0V48.97c2.875 0 5.101.79 6.678 2.366 1.579 1.576 2.366 3.46 2.366 5.641v5.644"/><path d="M6.592 65.455c18.928 0 16.929-16.049 16.929-16.049h9.043S34.702 74.04 6.597 74.04v-8.591"/><path d="M26.42 65.855l8.45 18.37h-9.043L19.668 71.23s-1.303-7.009 6.752-5.373"/></g><path d="M237.674 61.87c0 11.429-6.93 15.183-13.677 15.183-3.95 0-7.823-3.204-7.823-7.153l-.016-.063c0-3.687 2.66-5.107 5.477-5.107h-.138c2.706 0 4.697 1.504 4.697 3.52 0 1.085-1.154 2.983-2.9 3.524l-.006-.001c2.614-.219 5.08-2.165 5.08-5.043 0-2.657-3.335-6.399-7.911-6.399-4.58 0-10.324 3.142-10.324 10.295 0 5.687 5.068 13.583 15.743 13.583v.005c15.462 0 23.22-10.81 23.22-26.02l-.002-.182c-.102-6.751-2.498-14.61-9.551-22.714-7.442-8.555-15.476-12.484-41.896-14.85-19.809-1.77-17.596-7.608-17.596-7.608.061-.011 10.475-1.792 10.364-10.843 0 0-12.004-6.841-20.195 4.79-4.627 6.566-1.229 15.102.79 18.168 0 0-5.966.499-6.478 8.906-.526 8.64 7.084 14.983 7.084 14.983s-2.374-12.913 3.366-14.383c3.02-.776 2.442 1.064 9.139 4.71 7.471 4.07 12.431 1.099 13.207.94 0 0-1.549 7.368 5.153 13.704 0 0 3.594-12.433 14.703-11.852 8.946.468 14.677 3.835 18.196 10.71 1.52 2.964 2.27 5.626 2.27 9.192" fill="#83a1b4"/><path d="M240.207 60.51c0 11.71-6.696 18.169-14.957 18.169-6.22 0-10.648-3.851-10.648-8.6l-.005.163c0-5.061 3.407-6.713 6.477-6.713 3.067 0 5.553 2.012 5.553 4.494 0 1.114-.5 2.133-1.33 2.919l-.064.036c1.488-.855 2.503-2.11 2.503-3.89 0-2.263-2.718-5.54-6.882-5.54-4.166 0-9.036 3.156-9.036 8.133 0 10.254 9.501 12.577 14.543 12.577 11.43 0 20.168-9.444 20.168-23.474l-.001.623a25.823 25.823 0 0 0-.016-.786c-.267-8.007-3.743-16.223-10.203-22.528-9.044-8.828-16.89-10.929-39.35-13.57-22.461-2.648-18.902-10.866-19.049-11.362 0 0 10.128-.236 11.855-8.671 0 0-10.28-5.895-17.476 5.422-4.091 6.439.021 15.73 2.771 18.889 0 0-8.027-.575-8.626 8.462-.24 3.686 1.093 6.63 3.835 10.563 0 0-3.295-10.528 1.803-14.05.813-.563 2.648-1.439 5.14-.69 3.876 1.164 2.995 3.772 8.836 6.32 7.717 3.368 15.863-2.301 20.062-4.033 0 0-11.135 6.113-4.149 17.702 0 0 2.199-14.036 16.25-12.985 7.282.548 14.676 2.626 19.888 13.127 1.41 2.841 2.066 5.991 2.094 9.11l.014.182" fill="#052340"/><path d="M180.755 4.257c.32.774-.276 1.747-1.319 2.172-1.045.428-2.148.146-2.464-.629-.315-.774.276-1.744 1.32-2.17 1.043-.425 2.147-.146 2.463.628M4.532 97.67l-1.158-3.243h-.021L2.174 97.67zm-.643-4.08l2.718 6.955H5.584l-.76-2.094h-2.94l-.78 2.094H.16l2.707-6.955H3.89m8.338 3.156c.196-.034.366-.097.512-.191.146-.094.263-.22.35-.38.088-.16.133-.365.133-.62 0-.35-.098-.634-.293-.856-.195-.221-.51-.331-.945-.331h-2.3v2.424h1.93c.214 0 .419-.015.612-.046zm-.194-3.156c.662 0 1.18.161 1.554.487.373.325.56.769.56 1.334 0 .422-.096.792-.287 1.11-.193.32-.5.537-.921.653v.02c.2.038.364.103.492.195.126.09.227.2.301.326.075.127.13.267.167.423.034.157.063.32.082.487.012.171.022.341.03.516.006.177.022.347.047.518.027.168.064.328.112.481.05.154.123.288.22.406H13.36a.592.592 0 0 1-.132-.294 2.85 2.85 0 0 1-.043-.415 53.686 53.686 0 0 1-.02-.49 3.658 3.658 0 0 0-.058-.516 5.064 5.064 0 0 0-.098-.482 1.136 1.136 0 0 0-.185-.4.914.914 0 0 0-.331-.274 1.256 1.256 0 0 0-.546-.102h-2.26v2.973h-.925V93.59h3.273m3.948.778v-.778h5.562v.778h-2.318v6.177h-.926v-6.177h-2.318m8.771-.778v6.955h-.925V93.59h.925m6.518.949c-.31-.224-.703-.336-1.183-.336-.195 0-.387.02-.575.059a1.52 1.52 0 0 0-.502.195c-.146.09-.263.214-.35.365a1.128 1.128 0 0 0-.132.57.72.72 0 0 0 .19.52c.126.133.294.242.507.327.21.085.449.155.715.209.266.055.537.115.814.182.276.063.547.14.813.228.266.086.505.205.716.356.211.148.38.336.505.563.13.227.192.515.192.857 0 .371-.084.689-.248.95-.166.263-.38.478-.64.643a2.68 2.68 0 0 1-.87.36 4.106 4.106 0 0 1-.96.113c-.39 0-.759-.048-1.106-.146a2.709 2.709 0 0 1-.916-.444 2.09 2.09 0 0 1-.623-.759c-.152-.308-.229-.673-.229-1.096h.877c0 .293.056.544.17.755.114.211.263.386.448.522.185.137.401.237.648.301.247.066.5.097.76.097.208 0 .417-.019.629-.058.21-.039.4-.104.569-.199.17-.095.305-.223.41-.386.103-.162.155-.369.155-.622 0-.24-.064-.436-.19-.585a1.41 1.41 0 0 0-.506-.365 3.672 3.672 0 0 0-.717-.23c-.265-.06-.537-.118-.813-.18a11.1 11.1 0 0 1-.813-.214 2.991 2.991 0 0 1-.716-.321 1.517 1.517 0 0 1-.506-.517c-.128-.21-.191-.475-.191-.794 0-.35.072-.654.215-.91.143-.256.333-.467.57-.633a2.52 2.52 0 0 1 .809-.37c.3-.082.612-.121.93-.121.357 0 .688.04.993.126.305.083.573.217.804.399.23.181.412.41.545.686.133.278.205.607.22.99h-.877c-.052-.5-.233-.862-.54-1.088m7.851 3.132l-1.16-3.243h-.02l-1.179 3.243zm-.644-4.08l2.718 6.955h-1.023l-.76-2.094h-2.943l-.778 2.094h-.945l2.708-6.955h1.023m5.842 0l3.662 5.638h.02V93.59h.875v6.955h-1.012l-3.634-5.584h-.019v5.584h-.876V93.59h.984m11.011.949c-.31-.224-.705-.336-1.186-.336-.194 0-.384.02-.574.059a1.51 1.51 0 0 0-.5.195 1.03 1.03 0 0 0-.353.365 1.14 1.14 0 0 0-.13.57c0 .214.064.388.19.52.127.133.294.242.505.327.211.085.45.155.718.209.266.055.535.115.812.182.277.063.546.14.813.228.267.086.506.205.718.356a1.7 1.7 0 0 1 .506.563c.126.227.189.515.189.857 0 .371-.084.689-.247.95-.167.263-.38.478-.639.643-.26.167-.55.288-.872.36a4.116 4.116 0 0 1-.96.113c-.389 0-.76-.048-1.105-.146a2.7 2.7 0 0 1-.916-.444 2.055 2.055 0 0 1-.622-.759c-.155-.308-.231-.673-.231-1.096h.878c0 .293.056.544.17.755.114.211.262.386.449.522.184.137.4.237.647.301.246.066.5.097.76.097.208 0 .415-.019.627-.058s.4-.104.571-.199c.17-.095.305-.223.41-.386.102-.162.153-.369.153-.622 0-.24-.062-.436-.189-.585a1.408 1.408 0 0 0-.506-.365 3.626 3.626 0 0 0-.716-.23c-.266-.06-.537-.118-.812-.18a10.932 10.932 0 0 1-.814-.214 3 3 0 0 1-.716-.321 1.524 1.524 0 0 1-.507-.517c-.126-.21-.19-.475-.19-.794 0-.35.072-.654.214-.91a1.88 1.88 0 0 1 .57-.633c.238-.167.507-.29.808-.37a3.54 3.54 0 0 1 .931-.121c.357 0 .688.04.993.126.307.083.572.217.804.399.23.181.413.41.545.686.133.278.208.607.22.99h-.878c-.05-.5-.23-.862-.538-1.088m9.157 3.567c.092.34.235.647.43.921.194.272.443.49.75.656.306.165.669.249 1.09.249.424 0 .786-.084 1.092-.249.306-.165.556-.384.75-.656a2.81 2.81 0 0 0 .427-.921 3.96 3.96 0 0 0 0-2.075 2.794 2.794 0 0 0-.427-.92 2.163 2.163 0 0 0-.75-.658c-.306-.165-.668-.248-1.091-.248-.422 0-.785.083-1.091.248a2.17 2.17 0 0 0-.75.657c-.195.274-.338.58-.43.92a4.007 4.007 0 0 0 0 2.076zm-.85-2.406a3.4 3.4 0 0 1 .628-1.163 3.053 3.053 0 0 1 1.04-.809c.418-.2.902-.301 1.454-.301.55 0 1.035.1 1.451.301.415.202.762.47 1.042.809.279.337.489.725.628 1.163.14.44.21.895.21 1.369s-.07.93-.21 1.369a3.438 3.438 0 0 1-.628 1.163c-.28.339-.627.607-1.042.806-.416.195-.9.296-1.451.296s-1.035-.1-1.453-.296a3.008 3.008 0 0 1-1.04-.806 3.387 3.387 0 0 1-.629-1.163 4.42 4.42 0 0 1-.212-1.37c0-.473.07-.929.212-1.368m13.62-2.109v.778h-3.642v2.21h3.193v.78h-3.193v3.187h-.927V93.59h4.57m7.638 0v6.955h-.925V93.59h.925m3.999 0l3.663 5.638h.02V93.59h.875v6.955h-1.012l-3.634-5.584h-.02v5.584h-.876V93.59h.984m12.103 0v.778h-3.643v2.21h3.196v.78h-3.196v3.187h-.925V93.59h4.568m3.159 4.515c.092.34.234.647.43.921.196.272.445.49.75.656.304.165.67.249 1.091.249.421 0 .785-.084 1.09-.249.305-.165.555-.384.75-.656.196-.274.337-.58.43-.921a4.048 4.048 0 0 0 0-2.075 2.85 2.85 0 0 0-.43-.92 2.194 2.194 0 0 0-.75-.658c-.305-.165-.669-.248-1.09-.248-.422 0-.787.083-1.09.248a2.192 2.192 0 0 0-.75.657 2.81 2.81 0 0 0-.43.92 4.048 4.048 0 0 0 0 2.076zm-.852-2.406c.141-.438.35-.826.628-1.163a3.069 3.069 0 0 1 1.044-.809c.414-.2.898-.301 1.451-.301s1.037.1 1.452.301c.416.202.763.47 1.043.809.279.337.487.725.628 1.163a4.543 4.543 0 0 1 0 2.738c-.14.437-.35.827-.628 1.163-.28.339-.627.607-1.043.806-.415.195-.899.296-1.452.296-.552 0-1.036-.1-1.451-.296a3.023 3.023 0 0 1-1.044-.806 3.475 3.475 0 0 1-.628-1.163 4.498 4.498 0 0 1-.209-1.37c0-.473.07-.929.21-1.368m12.529 1.047c.196-.034.365-.097.511-.191.146-.094.263-.22.351-.38.086-.16.131-.365.131-.62 0-.35-.097-.634-.291-.856-.196-.221-.511-.331-.945-.331h-2.3v2.424h1.928c.215 0 .42-.015.615-.046zm-.196-3.156c.664 0 1.18.161 1.555.487.372.325.56.769.56 1.334 0 .422-.095.792-.288 1.11-.192.32-.498.537-.92.653v.02c.2.038.366.103.49.195.129.09.229.2.303.326.075.127.13.267.166.423.035.157.064.32.083.487.012.171.022.341.029.516.006.177.022.347.048.518.027.168.064.328.112.481.05.154.122.288.221.406h-1.033a.578.578 0 0 1-.131-.294 2.79 2.79 0 0 1-.044-.415l-.02-.49a3.653 3.653 0 0 0-.059-.516 5.62 5.62 0 0 0-.097-.482 1.102 1.102 0 0 0-.186-.4.906.906 0 0 0-.33-.274 1.255 1.255 0 0 0-.545-.102h-2.26v2.973h-.926V93.59h3.272m6.154 0l2.19 5.845 2.204-5.845h1.265v6.955h-.876V94.76h-.02l-2.172 5.786h-.79l-2.17-5.786h-.02v5.786h-.878V93.59h1.267m12.17 4.08l-1.157-3.243h-.02l-1.179 3.243zm-.642-4.08l2.718 6.955h-1.022l-.76-2.094h-2.942l-.779 2.094h-.946l2.708-6.955h1.024m3.307.778v-.778h5.564v.778h-2.319v6.177h-.925v-6.177h-2.32m8.798-.778v6.955h-.927V93.59h.927m3.6 4.515c.091.34.234.647.429.921.197.272.445.49.75.656.304.165.67.249 1.09.249.422 0 .786-.084 1.09-.249.306-.165.555-.384.751-.656.196-.274.338-.58.43-.921a4.056 4.056 0 0 0 0-2.075 2.822 2.822 0 0 0-.43-.92c-.196-.274-.445-.493-.75-.658s-.67-.248-1.09-.248c-.42 0-.787.083-1.09.248a2.207 2.207 0 0 0-.751.657 2.85 2.85 0 0 0-.43.92 4.108 4.108 0 0 0-.136 1.038c0 .35.047.697.136 1.038zm-.854-2.406c.142-.438.35-.826.63-1.163a3.072 3.072 0 0 1 1.042-.809c.416-.2.9-.301 1.451-.301.554 0 1.036.1 1.452.301.415.202.763.47 1.044.809.278.337.485.725.628 1.163.137.44.208.895.208 1.369s-.071.93-.208 1.369c-.143.437-.35.827-.628 1.163-.281.339-.63.607-1.044.806-.416.195-.898.296-1.452.296-.551 0-1.035-.1-1.451-.296a3.037 3.037 0 0 1-1.043-.806 3.482 3.482 0 0 1-.629-1.163 4.552 4.552 0 0 1-.208-1.37c0-.473.071-.929.208-1.368m10.051-2.109l3.663 5.638h.018V93.59h.88v6.955h-1.015l-3.635-5.584h-.018v5.584h-.878V93.59h.985m10.931.778v-.778h5.564v.778h-2.318v6.177h-.926v-6.177h-2.32m12.663-.778v.778h-3.876v2.21h3.614v.78h-3.614v2.409h3.906v.779h-4.831V93.59h4.801m6.799.984c-.354-.248-.776-.371-1.262-.371-.414 0-.771.079-1.066.233-.296.156-.54.367-.73.628a2.75 2.75 0 0 0-.426.9c-.09.34-.134.69-.134 1.053 0 .397.044.77.134 1.126.094.354.234.662.427.925.19.263.434.473.734.628.299.155.655.234 1.07.234.307 0 .578-.05.814-.15a1.83 1.83 0 0 0 .613-.42 1.91 1.91 0 0 0 .405-.638c.098-.246.156-.513.176-.797h.924c-.09.877-.393 1.556-.905 2.044-.512.487-1.216.73-2.104.73-.54 0-1.01-.09-1.412-.277a2.787 2.787 0 0 1-1.003-.764 3.264 3.264 0 0 1-.6-1.15 4.88 4.88 0 0 1-.201-1.422c0-.508.073-.982.215-1.427a3.45 3.45 0 0 1 .629-1.166 2.94 2.94 0 0 1 1.034-.782c.41-.192.884-.287 1.416-.287a3.6 3.6 0 0 1 1.032.145 2.8 2.8 0 0 1 .867.428c.254.19.466.424.632.706.17.281.28.61.332.98h-.925c-.104-.494-.33-.864-.686-1.11m5.198-.983v2.988h3.663V93.59h.924v6.955h-.924v-3.187h-3.663v3.187h-.926V93.59h.926m8.665 0l3.661 5.638h.02V93.59h.878v6.955h-1.014l-3.633-5.584h-.02v5.584h-.876V93.59h.984m8.131 4.515c.09.34.233.647.428.921.196.272.445.49.75.656.306.165.668.249 1.09.249s.787-.084 1.091-.249c.307-.165.556-.384.75-.656.195-.274.338-.58.43-.921a4.026 4.026 0 0 0 0-2.075 2.85 2.85 0 0 0-.43-.92 2.172 2.172 0 0 0-.75-.658c-.304-.165-.668-.248-1.09-.248s-.785.083-1.09.248-.555.384-.751.657c-.195.274-.339.58-.428.92a3.967 3.967 0 0 0-.136 1.038c0 .35.044.697.136 1.038zm-.853-2.406c.14-.438.35-.826.63-1.163a3.06 3.06 0 0 1 1.039-.809c.417-.2.9-.301 1.453-.301s1.034.1 1.45.301c.416.202.763.47 1.044.809.28.337.488.725.629 1.163a4.563 4.563 0 0 1 0 2.738c-.141.437-.35.827-.63 1.163a3.042 3.042 0 0 1-1.043.806c-.416.195-.898.296-1.45.296s-1.036-.1-1.453-.296a3.014 3.014 0 0 1-1.04-.806 3.436 3.436 0 0 1-.63-1.163 4.511 4.511 0 0 1-.208-1.37c0-.473.07-.929.209-1.368m10.051-2.109v6.177h3.681v.779h-4.606V93.59h.925m6.531 4.515c.09.34.235.647.428.921.196.272.446.49.75.656.305.165.67.249 1.091.249.423 0 .787-.084 1.09-.249.307-.165.556-.384.751-.656.195-.274.339-.58.43-.921a4.013 4.013 0 0 0-.001-2.075 2.822 2.822 0 0 0-.429-.92 2.172 2.172 0 0 0-.75-.658c-.304-.165-.668-.248-1.09-.248-.422 0-.787.083-1.091.248a2.195 2.195 0 0 0-.75.657 2.82 2.82 0 0 0-.429.92 4.025 4.025 0 0 0 0 2.076zm-.853-2.406c.14-.438.35-.826.63-1.163a3.06 3.06 0 0 1 1.04-.809c.418-.2.902-.301 1.452-.301.553 0 1.036.1 1.452.301.416.202.76.47 1.042.809.279.337.488.725.63 1.163.138.44.209.895.209 1.369s-.071.93-.21 1.369c-.14.437-.35.827-.629 1.163a3.037 3.037 0 0 1-1.042.806c-.416.195-.899.296-1.452.296-.55 0-1.034-.1-1.453-.296a3.014 3.014 0 0 1-1.04-.806 3.459 3.459 0 0 1-.629-1.163 4.563 4.563 0 0 1 0-2.738m13.25 4.761c-.402.162-.809.24-1.217.24a3.28 3.28 0 0 1-1.394-.286 3.169 3.169 0 0 1-1.04-.774 3.365 3.365 0 0 1-.654-1.123 3.898 3.898 0 0 1-.227-1.314c0-.507.072-.989.212-1.446.139-.459.348-.858.623-1.204.277-.344.62-.617 1.034-.823.41-.205.893-.306 1.446-.306.378 0 .733.043 1.067.132.334.085.633.225.895.412.264.19.486.429.663.718.179.287.3.637.365 1.046h-.925a1.818 1.818 0 0 0-.255-.686 1.612 1.612 0 0 0-.457-.472 2.022 2.022 0 0 0-.617-.279 2.804 2.804 0 0 0-.736-.092c-.424 0-.785.084-1.086.253-.303.17-.55.39-.74.668a2.92 2.92 0 0 0-.425.942 4.322 4.322 0 0 0-.136 1.089c0 .363.052.712.156 1.047.104.334.256.63.458.885.202.257.45.463.744.614a2.22 2.22 0 0 0 1.03.229c.363 0 .683-.058.962-.174.281-.116.516-.279.708-.483.19-.205.335-.445.433-.721.098-.276.138-.573.128-.892h-2.222v-.779h3.05v3.663h-.587l-.241-.867a2.307 2.307 0 0 1-1.015.783m7.598.085h-.925v-2.844l-2.69-4.111h1.101l2.085 3.31 2.036-3.31h1.053l-2.66 4.11v2.845" fill="#83a1b4"/></svg>