<svg width="249.2" height="99.69" viewBox="0 0 249.17332 99.693336" xmlns="http://www.w3.org/2000/svg"><g fill="#fff"><path d="M163.692 48.916c0 2.911-.787 5.141-2.355 6.697-1.57 1.554-3.24 2.138-5.46 2.138l-10.125.061h-4.645a2.245 2.245 0 0 0-2.247 2.24 2.248 2.248 0 0 0 2.247 2.242h11.502c6.051 0 10.975 4.925 10.975 10.98 0 6.054-4.924 10.977-10.975 10.977H130.12c0-2.91.786-5.14 2.354-6.695 1.571-1.556 3.234-2.034 5.452-2.034l6.885-.005h7.791a2.246 2.246 0 0 0 2.244-2.245 2.247 2.247 0 0 0-2.244-2.244h-11.501c-6.056 0-10.981-4.926-10.981-10.978 0-6.054 4.948-11.134 11.004-11.134h22.567M62.918 66.672c0-2.464-.846-4.58-2.537-6.35-1.692-1.771-3.771-2.656-6.239-2.656s-4.546.885-6.238 2.655c-1.69 1.77-2.534 3.887-2.534 6.35 0 2.433.85 4.527 2.557 6.286 1.703 1.754 3.776 2.635 6.217 2.635h8.775zm-8.753 17.595c-4.896 0-9.095-1.714-12.594-5.145-3.498-3.429-5.25-7.58-5.25-12.445 0-4.87 1.75-9.031 5.25-12.489 3.5-3.46 7.698-5.19 12.594-5.19 4.894 0 9.1 1.73 12.613 5.19 3.512 3.458 5.27 7.618 5.27 12.489v17.596H54.16M93.31 57.66h-8.776v8.922c0 2.464.846 4.578 2.538 6.35 1.69 1.768 3.77 2.653 6.238 2.653 2.469 0 4.547-.885 6.238-2.654 1.69-1.771 2.538-3.885 2.538-6.349 0-2.434-.852-4.53-2.559-6.287-1.702-1.756-3.775-2.636-6.216-2.636zm.02 26.594c-4.895 0-9.093-1.728-12.59-5.187-3.502-3.456-5.252-7.62-5.252-12.486V40.734c2.879 0 5.105.788 6.68 2.365 1.579 1.575 2.365 3.458 2.365 5.644v.247h8.797c4.897 0 9.1 1.708 12.614 5.127 3.512 3.415 5.27 7.571 5.27 12.469 0 4.865-1.758 9.03-5.27 12.486-3.514 3.46-7.717 5.187-12.614 5.187m24.44-2.365c-1.578-1.576-2.366-3.457-2.366-5.64v-27.26c2.877 0 5.106.789 6.679 2.365 1.58 1.576 2.366 3.46 2.366 5.642v27.26c-2.878 0-5.102-.788-6.678-2.365m75.114-15.238c0-2.462-.846-4.579-2.538-6.349-1.689-1.771-3.77-2.655-6.236-2.655-2.468 0-4.547.884-6.24 2.655-1.691 1.77-2.536 3.887-2.536 6.35 0 2.432.853 4.526 2.56 6.284 1.703 1.755 3.774 2.634 6.216 2.634h8.774zm-8.754 17.596c-4.896 0-9.092-1.714-12.593-5.146-3.5-3.43-5.248-7.579-5.248-12.444 0-4.871 1.748-9.031 5.248-12.49 3.5-3.458 7.697-5.189 12.593-5.189s9.1 1.73 12.612 5.19c3.512 3.456 5.272 7.616 5.272 12.489v17.595h-17.889M25.834 84.24h9.043L26.79 66.659c6.626-7.255 5.772-17.235 5.772-17.235h-9.044s1.81 14.596-14.476 15.929v-8.365c0-2.183-.789-4.067-2.366-5.64C5.1 49.77 2.874 48.981-.002 48.981v35.271h9.044V73.986c4.354-.239 7.895-1.116 10.795-2.397l5.993 12.645M4.39 96.673l-1.154-3.228h-.02l-1.173 3.228zm-.64-4.063l2.705 6.925H5.437l-.756-2.084H1.752l-.775 2.084h-.94L2.73 92.61h1.02m8.3 3.144a1.36 1.36 0 0 0 .509-.19 1.02 1.02 0 0 0 .349-.378c.088-.159.132-.364.132-.615 0-.35-.098-.635-.292-.855-.194-.22-.508-.329-.94-.329H9.52v2.414h1.92c.213 0 .416-.017.61-.048zm-.194-3.142c.66 0 1.175.161 1.548.485.371.324.557.766.557 1.328 0 .42-.095.789-.287 1.105-.19.318-.495.534-.915.65v.02c.2.039.363.102.49.194.125.09.226.199.3.325.074.126.129.267.165.421.035.157.063.317.082.485.013.169.022.34.03.514.006.175.022.347.047.515.027.167.063.328.112.48.049.152.121.286.219.402h-1.028a.585.585 0 0 1-.132-.29 2.934 2.934 0 0 1-.043-.413 40.933 40.933 0 0 1-.02-.49 3.508 3.508 0 0 0-.057-.514 5.017 5.017 0 0 0-.097-.48 1.161 1.161 0 0 0-.185-.397.912.912 0 0 0-.33-.272c-.136-.068-.317-.102-.543-.102H9.52v2.958h-.922v-6.925h3.26m3.938.775v-.776h5.537v.776h-2.308v6.15h-.923v-6.15h-2.307m8.719-.776v6.925h-.922V92.61h.922m6.492.947c-.308-.224-.7-.336-1.18-.336-.193 0-.384.02-.571.059a1.51 1.51 0 0 0-.5.193 1.024 1.024 0 0 0-.348.364 1.122 1.122 0 0 0-.131.569c0 .213.063.385.189.518.126.131.293.24.504.325a4.4 4.4 0 0 0 .713.207c.264.056.534.115.81.18a8.9 8.9 0 0 1 .809.23c.265.085.503.202.712.353.211.149.379.335.505.562.126.225.19.51.19.852 0 .37-.083.685-.248.947a2.028 2.028 0 0 1-.635.638 2.7 2.7 0 0 1-.868.36 4.16 4.16 0 0 1-.955.112c-.388 0-.755-.048-1.101-.146a2.692 2.692 0 0 1-.911-.441 2.068 2.068 0 0 1-.62-.757c-.154-.306-.23-.67-.23-1.09h.874c0 .29.056.542.169.75.113.21.261.384.446.52.184.137.4.237.645.3a2.9 2.9 0 0 0 .757.098c.207 0 .414-.02.625-.06.21-.038.399-.103.567-.198.169-.093.304-.221.407-.382.104-.163.156-.37.156-.62 0-.24-.063-.435-.19-.582a1.409 1.409 0 0 0-.504-.365 3.647 3.647 0 0 0-.712-.227l-.81-.18a11.714 11.714 0 0 1-.81-.212 2.971 2.971 0 0 1-.712-.321 1.514 1.514 0 0 1-.505-.513c-.126-.211-.189-.474-.189-.792 0-.349.071-.65.214-.906.141-.255.33-.466.567-.63a2.51 2.51 0 0 1 .805-.369c.3-.08.61-.12.926-.12.355 0 .685.041.989.125.304.083.57.216.8.398.23.18.41.408.542.684.133.274.206.603.22.985h-.875c-.05-.5-.23-.86-.536-1.082m7.811 3.116l-1.153-3.228h-.02l-1.173 3.228zm-.64-4.063l2.706 6.925h-1.019l-.755-2.084h-2.93l-.775 2.084h-.94l2.695-6.925h1.018m5.825 0l3.646 5.615h.02V92.61h.873v6.925h-1.008l-3.618-5.557h-.019v5.557h-.874V92.61h.98m10.958.947c-.309-.224-.7-.336-1.18-.336-.192 0-.384.02-.57.059a1.51 1.51 0 0 0-.5.193 1.03 1.03 0 0 0-.35.364 1.128 1.128 0 0 0-.13.569.72.72 0 0 0 .189.518c.126.131.294.24.504.325.21.082.448.153.713.207.265.056.534.115.81.18.275.065.544.14.809.23.265.085.503.202.713.353.21.149.378.335.504.562.126.225.19.51.19.852 0 .37-.083.685-.248.947a2.03 2.03 0 0 1-.635.638 2.689 2.689 0 0 1-.868.36 4.177 4.177 0 0 1-2.055-.034 2.682 2.682 0 0 1-.912-.441 2.075 2.075 0 0 1-.621-.757c-.152-.306-.228-.67-.228-1.09h.873c0 .29.056.542.17.75.112.21.26.384.445.52.184.137.4.237.645.3.246.066.498.098.757.098.207 0 .415-.02.626-.06.209-.038.398-.103.567-.198.167-.093.303-.221.407-.382.103-.163.155-.37.155-.62 0-.24-.063-.435-.19-.582a1.413 1.413 0 0 0-.503-.365 3.64 3.64 0 0 0-.713-.227l-.81-.18a11.887 11.887 0 0 1-.81-.212 2.966 2.966 0 0 1-.712-.321 1.509 1.509 0 0 1-.504-.513c-.127-.211-.19-.474-.19-.792 0-.349.072-.65.213-.906a1.86 1.86 0 0 1 .568-.63c.236-.165.505-.29.806-.369.3-.08.609-.12.925-.12.356 0 .685.041.99.125.303.083.57.216.799.398.23.18.41.408.543.684.132.274.205.603.219.985h-.874c-.052-.5-.23-.86-.537-1.082m9.117 3.548c.091.34.233.645.428.917.194.272.442.49.746.655.305.164.666.247 1.087.247.42 0 .78-.083 1.085-.247a2.16 2.16 0 0 0 .747-.655c.194-.272.336-.577.427-.917a4.04 4.04 0 0 0 0-2.065 2.821 2.821 0 0 0-.427-.917 2.171 2.171 0 0 0-.747-.655c-.304-.163-.666-.247-1.085-.247-.421 0-.782.084-1.087.247a2.182 2.182 0 0 0-.746.655 2.798 2.798 0 0 0-.428.917 4.014 4.014 0 0 0 0 2.065zm-.847-2.395a3.43 3.43 0 0 1 .625-1.159 3.065 3.065 0 0 1 1.038-.805c.413-.2.895-.3 1.445-.3s1.03.1 1.445.3a3.1 3.1 0 0 1 1.037.805c.277.338.486.723.625 1.159.14.436.209.892.209 1.36 0 .474-.07.928-.21 1.366a3.448 3.448 0 0 1-.624 1.157 3.01 3.01 0 0 1-1.037.8c-.414.197-.896.296-1.445.296s-1.032-.099-1.445-.296a2.975 2.975 0 0 1-1.038-.8 3.414 3.414 0 0 1-.625-1.157 4.451 4.451 0 0 1-.21-1.365c0-.47.07-.925.21-1.361m13.564-2.1v.776h-3.626v2.2h3.18v.777h-3.18v3.171h-.922V92.61h4.548m7.598 0v6.925h-.92V92.61h.92m3.986 0l3.646 5.615h.02V92.61h.872v6.925h-1.008l-3.618-5.557h-.018v5.557h-.874V92.61h.98m12.037 0v.776h-3.626v2.2h3.18v.777h-3.18v3.171h-.922V92.61h4.547m3.16 4.495c.09.34.233.645.427.917.194.272.443.49.747.655.304.164.666.247 1.086.247.42 0 .782-.083 1.086-.247s.553-.383.747-.655a2.82 2.82 0 0 0 .426-.917 4.017 4.017 0 0 0 0-2.065 2.82 2.82 0 0 0-.426-.917 2.177 2.177 0 0 0-.747-.655c-.304-.163-.665-.247-1.086-.247-.42 0-.782.084-1.086.247a2.182 2.182 0 0 0-.747.655 2.796 2.796 0 0 0-.427.917 4.014 4.014 0 0 0 0 2.065zm-.848-2.395c.139-.436.347-.821.626-1.159a3.065 3.065 0 0 1 1.037-.805c.414-.2.896-.3 1.445-.3s1.03.1 1.445.3c.413.202.76.47 1.038.805.278.338.485.723.625 1.159.138.436.208.892.208 1.36 0 .474-.07.928-.208 1.366a3.45 3.45 0 0 1-.625 1.157 2.995 2.995 0 0 1-1.038.8c-.414.197-.896.296-1.445.296s-1.031-.099-1.445-.296a2.975 2.975 0 0 1-1.037-.8 3.423 3.423 0 0 1-.626-1.157 4.48 4.48 0 0 1-.209-1.365c0-.47.07-.925.209-1.361m12.459 1.044c.194-.033.363-.097.51-.19.145-.093.26-.22.348-.378.088-.159.13-.364.13-.615 0-.35-.096-.635-.29-.855-.194-.22-.507-.329-.941-.329h-2.288v2.414h1.92c.214 0 .417-.017.61-.048zm-.194-3.142c.659 0 1.174.161 1.546.485.372.324.557.766.557 1.328 0 .42-.096.789-.285 1.105-.191.318-.497.534-.917.65v.02c.2.039.363.102.49.194.126.09.226.199.3.325.074.126.13.267.165.421.035.157.063.317.083.485.012.169.022.34.029.514.006.175.022.347.048.515.026.167.062.328.111.48.05.152.122.286.219.402h-1.028a.576.576 0 0 1-.13-.29 2.927 2.927 0 0 1-.045-.413 89.314 89.314 0 0 1-.019-.49 3.573 3.573 0 0 0-.058-.514 5.04 5.04 0 0 0-.097-.48 1.162 1.162 0 0 0-.185-.397.911.911 0 0 0-.329-.272 1.233 1.233 0 0 0-.543-.102h-2.25v2.958h-.922v-6.925h3.258m6.141-.001l2.18 5.819 2.192-5.819h1.26v6.925h-.872v-5.758h-.019l-2.163 5.758h-.786l-2.164-5.758h-.018v5.758h-.873V92.61h1.26m12.16 4.063l-1.155-3.228h-.019l-1.173 3.228zm-.64-4.063l2.705 6.925h-1.018l-.756-2.084h-2.929l-.774 2.084h-.941l2.695-6.925h1.02m3.184.776v-.776h5.537v.776h-2.307v6.15h-.923v-6.15h-2.307m8.797-.776v6.925h-.922V92.61h.923m3.599 4.495c.092.34.233.645.427.917.194.272.443.49.747.655s.665.247 1.086.247c.42 0 .78-.083 1.085-.247.304-.164.554-.383.748-.655.194-.272.335-.577.425-.917a3.994 3.994 0 0 0 0-2.065 2.815 2.815 0 0 0-.425-.917 2.19 2.19 0 0 0-.748-.655c-.305-.163-.665-.247-1.085-.247-.42 0-.782.084-1.086.247a2.174 2.174 0 0 0-.747.655 2.82 2.82 0 0 0-.427.917 3.993 3.993 0 0 0 0 2.066zm-.848-2.395a3.43 3.43 0 0 1 .625-1.159 3.067 3.067 0 0 1 1.038-.805c.414-.2.895-.3 1.445-.3s1.03.1 1.445.3a3.1 3.1 0 0 1 1.037.805c.278.338.486.723.626 1.159.138.436.208.892.208 1.36 0 .474-.07.928-.208 1.366-.14.434-.348.822-.626 1.157a3.011 3.011 0 0 1-1.037.8c-.414.197-.895.296-1.445.296s-1.031-.099-1.445-.296a2.977 2.977 0 0 1-1.038-.8 3.415 3.415 0 0 1-.625-1.157 4.451 4.451 0 0 1-.21-1.365c0-.47.07-.925.21-1.361m10.045-2.1l3.646 5.615h.019V92.61h.874v6.925h-1.01l-3.617-5.557h-.018v5.557h-.875V92.61h.981m10.931.776v-.776h5.537v.776h-2.307v6.15h-.921v-6.15h-2.31m12.531-.776v.776h-3.859v2.2h3.596v.777h-3.596v2.397h3.888v.775h-4.81V92.61h4.781m6.798.98c-.353-.245-.771-.368-1.255-.368-.415 0-.77.08-1.061.233a2.07 2.07 0 0 0-.728.626 2.68 2.68 0 0 0-.423.896 4.04 4.04 0 0 0-.136 1.047c0 .395.046.768.136 1.12.09.353.23.661.423.921.19.262.433.472.733.627.295.154.652.233 1.064.233.305 0 .574-.05.81-.151.237-.1.441-.238.612-.417.17-.177.305-.39.403-.635.096-.246.156-.51.173-.794h.921c-.09.872-.39 1.55-.901 2.034-.51.486-1.21.728-2.094.728-.539 0-1.007-.091-1.407-.276a2.759 2.759 0 0 1-.998-.761 3.253 3.253 0 0 1-.597-1.145 4.894 4.894 0 0 1-.2-1.416c0-.506.072-.977.214-1.42.142-.443.351-.83.626-1.16a2.94 2.94 0 0 1 1.029-.78c.409-.191.88-.285 1.409-.285.362 0 .706.048 1.029.146.324.096.612.238.862.425.254.187.464.422.63.703.17.282.278.607.331.975h-.92c-.106-.492-.331-.86-.685-1.106m5.199-.98v2.976h3.647V92.61h.92v6.925h-.92v-3.17h-3.647v3.17h-.922V92.61h.922m8.531 0l3.646 5.615h.02V92.61h.873v6.925h-1.01l-3.615-5.557h-.02v5.557h-.872V92.61h.978m8.132 4.495c.089.34.233.645.425.917.196.272.444.49.748.655s.666.247 1.085.247c.42 0 .784-.083 1.086-.247a2.15 2.15 0 0 0 .747-.655 2.82 2.82 0 0 0 .427-.917 3.993 3.993 0 0 0 0-2.065 2.82 2.82 0 0 0-.427-.917 2.162 2.162 0 0 0-.747-.655c-.302-.163-.665-.247-1.086-.247-.419 0-.781.084-1.085.247a2.203 2.203 0 0 0-.748.655 2.815 2.815 0 0 0-.425.917 3.991 3.991 0 0 0 0 2.065zm-.85-2.395c.14-.436.348-.821.627-1.159a3.082 3.082 0 0 1 1.036-.805c.414-.2.896-.3 1.445-.3.55 0 1.033.1 1.445.3.416.202.76.47 1.04.805.277.338.485.723.623 1.159.14.436.21.892.21 1.36 0 .474-.07.928-.21 1.366a3.435 3.435 0 0 1-.624 1.157c-.28.337-.623.603-1.04.8-.411.197-.894.296-1.444.296-.55 0-1.03-.099-1.445-.296a2.992 2.992 0 0 1-1.036-.8 3.44 3.44 0 0 1-.627-1.157 4.533 4.533 0 0 1-.207-1.365c0-.47.07-.925.207-1.361m9.914-2.1v6.15h3.666v.774h-4.587V92.61h.921m6.665 4.495c.09.34.233.645.427.917.194.272.443.49.746.655.305.164.667.247 1.086.247s.784-.083 1.085-.247c.306-.164.554-.383.748-.655.194-.272.336-.577.427-.917a3.994 3.994 0 0 0 0-2.065 2.817 2.817 0 0 0-.427-.917 2.179 2.179 0 0 0-.748-.655c-.3-.163-.665-.247-1.085-.247s-.78.084-1.086.247a2.199 2.199 0 0 0-.746.655 2.817 2.817 0 0 0-.427.917 3.993 3.993 0 0 0 0 2.066zm-.848-2.395a3.43 3.43 0 0 1 .625-1.159 3.062 3.062 0 0 1 1.037-.805c.414-.2.896-.3 1.445-.3.551 0 1.032.1 1.445.3a3.1 3.1 0 0 1 1.039.805c.277.338.485.723.625 1.159.137.436.208.892.208 1.36 0 .474-.07.928-.208 1.366a3.47 3.47 0 0 1-.625 1.157c-.28.337-.624.603-1.039.8-.413.197-.894.296-1.445.296-.549 0-1.031-.099-1.445-.296a2.973 2.973 0 0 1-1.037-.8 3.415 3.415 0 0 1-.625-1.157 4.491 4.491 0 0 1-.208-1.365c0-.47.07-.925.208-1.361m13.111 4.742c-.4.16-.805.238-1.211.238-.519 0-.98-.096-1.388-.286a3.164 3.164 0 0 1-1.037-.77 3.359 3.359 0 0 1-.65-1.117 3.872 3.872 0 0 1-.223-1.308c0-.505.07-.985.208-1.44.139-.455.347-.854.621-1.197a3.008 3.008 0 0 1 1.028-.82c.41-.205.89-.305 1.44-.305.375 0 .73.043 1.06.13.334.088.634.226.895.413.26.187.481.426.659.712.178.288.3.636.363 1.044h-.92a1.838 1.838 0 0 0-.254-.684 1.635 1.635 0 0 0-.454-.472 2.061 2.061 0 0 0-.616-.276 2.84 2.84 0 0 0-.732-.092c-.421 0-.783.085-1.081.252-.303.17-.547.39-.737.666a2.87 2.87 0 0 0-.423.94 4.253 4.253 0 0 0-.136 1.08c0 .362.05.71.155 1.044.102.333.256.626.456.882.201.254.449.459.742.61.295.152.635.229 1.024.229a2.5 2.5 0 0 0 .958-.174c.279-.117.514-.278.703-.48.192-.205.336-.444.433-.718.097-.276.139-.571.125-.888h-2.21v-.776h3.035v3.647h-.582l-.243-.863a2.29 2.29 0 0 1-1.007.78m7.598.082h-.921v-2.83l-2.677-4.093h1.096l2.075 3.298 2.026-3.298h1.048l-2.647 4.092v2.831M223.278 71.79a.084.084 0 0 1 .01-.003l-.017.002.007.001"/><path d="M177.022 4.434c-.313-.774.278-1.744 1.323-2.17 1.042-.426 2.071-.112 2.462.628.686 1.298-1.319 2.171-1.319 2.171-1.045.428-2.148.146-2.466-.629zm72.076 53.6c-.102-6.752-2.498-14.61-9.551-22.715-7.442-8.555-15.476-12.483-41.896-14.85-19.809-1.77-17.596-7.608-17.596-7.608.061-.01 10.475-1.792 10.364-10.843 0 0-12.004-6.84-20.195 4.79-4.627 6.566-1.229 15.103.79 18.169 0 0-5.966.498-6.478 8.905-.526 8.641 7.084 14.983 7.084 14.983s-2.374-12.912 3.366-14.383c3.02-.776 2.442 1.065 9.139 4.711 7.471 4.07 12.431 1.098 13.207.94 0 0-1.549 7.368 5.153 13.703 0 0 3.594-12.433 14.703-11.851 8.946.467 14.677 3.835 18.196 10.71 1.52 2.963 2.27 5.625 2.27 9.191 0 11.43-6.93 15.183-13.677 15.183-3.95 0-7.823-3.203-7.823-7.153l-.016-.062c0-3.655 2.615-5.079 5.407-5.102 2.67.025 4.63 1.516 4.63 3.515 0 1.082-1.151 2.973-2.89 3.52 2.608-.226 5.063-2.168 5.063-5.04 0-2.657-3.335-6.399-7.911-6.399-4.58 0-10.324 3.142-10.324 10.295 0 5.686 5.068 13.583 15.743 13.583v.004c15.462 0 23.22-10.808 23.22-26.02l-.002-.181"/></g></svg>