<?xml version="1.0" encoding="UTF-8"?>
<svg width="25.35mm" height="7.1258mm" version="1.1" viewBox="0 0 28.515 8.0157" xmlns="http://www.w3.org/2000/svg">
 <g fill="#2aa0a2" stroke-width=".26458">
  <path d="m5.54 7.91h-5.5397v-1.0129h5.5397z"/>
  <path d="m11.4 7.12q-0.37724 0.42892-0.91467 0.66663-0.53743 0.23254-1.1731 0.23254-0.78548 0-1.4108-0.3514-0.62012-0.3514-0.98185-0.95601-0.35657-0.60978-0.35657-1.3798 0-0.76998 0.35657-1.3746 0.36173-0.60978 0.98185-0.96118 0.62528-0.3514 1.4108-0.3514 0.63045 0 1.1627 0.23254 0.53743 0.23255 0.91467 0.65629l-0.74414 0.79065q-0.23254-0.25321-0.56327-0.39274-0.32556-0.13953-0.69246-0.13953-0.44442 0-0.79065 0.19637-0.34106 0.19637-0.53743 0.5426-0.1912 0.34623-0.1912 0.79582 0 0.44958 0.1912 0.80098 0.19637 0.34623 0.53743 0.54777 0.34623 0.19637 0.79065 0.19637 0.3669 0 0.69763-0.13953 0.33073-0.14469 0.5581-0.39274z"/>
  <path d="m14.806 8.01q-0.79065 0-1.4159-0.3514-0.62012-0.3514-0.98185-0.95601-0.35657-0.60978-0.35657-1.3798 0-0.76998 0.35657-1.3746 0.36173-0.60978 0.98185-0.96118 0.62528-0.3514 1.4159-0.3514 0.78548 0 1.4056 0.3514t0.97151 0.96118q0.35657 0.60461 0.35657 1.3746 0 0.76997-0.35657 1.3798-0.3514 0.60461-0.97151 0.95601t-1.4056 0.3514zm-0.01034-1.142q0.41341 0 0.73897-0.20154t0.5116-0.55294q0.1912-0.3514 0.1912-0.79581 0-0.43925-0.1912-0.78548-0.18603-0.3514-0.5116-0.55294-0.32556-0.20153-0.73897-0.20153-0.40824 0-0.73897 0.20153-0.32556 0.20154-0.51676 0.55294-0.18603 0.34623-0.18603 0.78548 0 0.44441 0.18603 0.79581 0.1912 0.3514 0.51676 0.55294 0.33073 0.20154 0.73897 0.20154z"/>
  <path d="m20.242 7.91h-1.2712v-4.0308h-0.90434v-1.1369h0.90434v-0.90433q0-0.53744 0.24288-0.95085 0.24805-0.41341 0.67179-0.64595 0.42891-0.23771 0.98702-0.23771 0.34623 0 0.7028 0.0982t0.69763 0.30489l-0.48059 0.99218q-0.17053-0.12919-0.35657-0.1912-0.18087-0.0672-0.36173-0.0672-0.35657 0-0.59428 0.25321-0.23771 0.25322-0.23771 0.69246v0.65629h1.5606v1.1369h-1.5606z"/>
  <path d="m24.087 7.91h-1.7105l2.2117-2.651-2.0774-2.5166h1.7312l1.2144 1.6226 1.1937-1.6226h1.7156l-2.0567 2.496 2.2066 2.6717h-1.7312l-1.3384-1.7932z"/>
 </g>
</svg>
